<?xml version="1.0" standalone="no"?>
<!DOCTYPE svg PUBLIC "-//W3C//DTD SVG 20010904//EN"
 "http://www.w3.org/TR/2001/REC-SVG-20010904/DTD/svg10.dtd">
<svg version="1.0" xmlns="http://www.w3.org/2000/svg"
 width="512.000000pt" height="512.000000pt" viewBox="0 0 512.000000 512.000000"
 preserveAspectRatio="xMidYMid meet">
<metadata>
Created by potrace 1.14, written by Peter Selinger 2001-2017
</metadata>
<g transform="translate(0.000000,512.000000) scale(0.100000,-0.100000)"
fill="#000000" stroke="none">
<path d="M580 5027 c0 -4 13 -31 30 -60 65 -116 129 -317 166 -527 26 -145 23
-419 -5 -525 -57 -212 -190 -395 -368 -505 -29 -17 -53 -32 -53 -33 0 -1 33
-3 73 -3 164 -3 295 -48 444 -153 94 -66 165 -153 222 -271 l46 -95 0 -115 c0
-97 -4 -128 -27 -200 -15 -47 -39 -102 -53 -123 -32 -46 -21 -47 36 -4 190
145 439 268 672 332 52 14 57 18 52 38 -13 43 -14 53 -25 183 -13 153 -3 281
35 420 25 95 80 225 117 276 13 19 18 33 11 35 -24 8 -152 89 -223 141 -265
194 -476 406 -813 815 -170 207 -336 391 -337 374z"/>
<path d="M3539 4495 c-1 -27 -4 -103 -8 -168 l-6 -118 -95 -41 c-131 -56 -197
-65 -361 -48 -153 16 -247 6 -415 -41 -192 -54 -277 -104 -423 -251 -145 -144
-227 -284 -278 -473 -25 -91 -27 -116 -27 -275 -1 -160 2 -183 27 -274 53
-192 170 -369 338 -510 94 -79 143 -107 542 -307 197 -98 390 -199 427 -224
182 -121 290 -304 290 -490 0 -240 -167 -433 -480 -553 -54 -21 -83 -25 -175
-25 -225 -2 -448 83 -706 266 -218 157 -339 238 -339 228 0 -5 4 -12 9 -15 35
-22 173 -235 266 -411 114 -215 223 -342 386 -452 104 -70 146 -90 252 -118
137 -36 327 -38 507 -6 213 39 519 222 663 398 145 178 236 410 237 610 1 176
-47 421 -108 556 -53 116 -163 279 -242 357 -112 112 -220 180 -585 367 -499
255 -590 331 -631 524 -48 227 106 504 315 565 124 36 222 4 435 -144 89 -62
124 -79 190 -97 171 -47 246 -90 421 -241 144 -124 135 -122 211 -40 35 37 64
74 64 82 0 7 -12 21 -26 31 -25 16 -26 19 -20 85 5 45 4 68 -3 68 -6 0 -11 -4
-11 -8 0 -5 -16 -25 -35 -45 -32 -33 -42 -37 -84 -37 -62 0 -119 40 -151 105
-29 59 -24 154 9 209 44 70 132 104 210 80 75 -22 90 -44 93 -144 l3 -85 53
82 c51 79 54 82 80 72 24 -9 30 -7 52 19 25 30 133 213 128 217 -6 3 -264 143
-323 174 -55 30 -73 33 -218 46 -87 7 -161 16 -164 19 -4 3 29 7 73 7 43 1 93
4 109 8 28 6 24 10 -75 61 -65 35 -121 72 -148 100 -71 74 -154 183 -204 272
l-48 83 -1 -50z"/>
<path d="M1107 2172 c28 -33 64 -87 79 -119 29 -58 29 -59 30 -253 1 -186 2
-199 28 -277 37 -107 78 -168 152 -223 l60 -46 -56 -17 c-107 -31 -202 -118
-235 -215 -16 -47 -11 -56 23 -38 81 42 169 24 280 -54 115 -82 162 -110 214
-131 60 -23 229 -49 331 -49 66 0 88 12 45 26 -13 4 -57 30 -98 59 -137 96
-378 211 -483 230 -20 4 -39 10 -41 14 -9 15 266 21 359 7 l60 -8 -60 44
c-124 92 -284 286 -320 388 -8 23 -15 45 -15 47 0 2 19 -11 43 -30 60 -49 111
-72 209 -96 177 -42 253 -76 330 -149 l37 -35 7 29 c16 62 7 276 -14 359 -11
44 -19 81 -17 83 7 8 44 -76 69 -158 14 -47 41 -155 60 -240 19 -85 42 -175
50 -200 19 -55 68 -150 78 -150 31 0 78 236 78 389 0 93 -23 218 -50 271 -35
68 -147 177 -238 231 -174 104 -227 156 -267 262 -10 26 -22 47 -27 47 -10 0
-3 -113 18 -284 16 -126 13 -158 -17 -217 -22 -44 -33 -49 -108 -49 -142 0
-230 70 -335 265 -77 143 -141 226 -228 293 -83 65 -89 64 -31 -6z"/>
</g>
</svg>
